<?xml version="1.0" encoding="UTF-8" standalone="no"?>
<!-- Created with Inkscape (http://www.inkscape.org/) -->

<svg
   xmlns:dc="http://purl.org/dc/elements/1.1/"
   xmlns:cc="http://creativecommons.org/ns#"
   xmlns:rdf="http://www.w3.org/1999/02/22-rdf-syntax-ns#"
   xmlns:svg="http://www.w3.org/2000/svg"
   xmlns="http://www.w3.org/2000/svg"
   xmlns:xlink="http://www.w3.org/1999/xlink"
   xmlns:sodipodi="http://sodipodi.sourceforge.net/DTD/sodipodi-0.dtd"
   xmlns:inkscape="http://www.inkscape.org/namespaces/inkscape"
   id="svg2"
   version="1.1"
   inkscape:version="0.48.3.1 r9886"
   width="512"
   height="512"
   sodipodi:docname="ic_launcher.svg"
   inkscape:export-filename="/home/drbild/git/shout-branding/shout-color-32.png"
   inkscape:export-xdpi="5.625"
   inkscape:export-ydpi="5.625">
  <metadata
     id="metadata8">
    <rdf:RDF>
      <cc:Work
         rdf:about="">
        <dc:format>image/svg+xml</dc:format>
        <dc:type
           rdf:resource="http://purl.org/dc/dcmitype/StillImage" />
        <dc:title />
      </cc:Work>
    </rdf:RDF>
  </metadata>
  <defs
     id="defs6">
    <linearGradient
       id="linearGradient4270">
      <stop
         style="stop-color:#ecb700;stop-opacity:1;"
         offset="0"
         id="stop4272" />
      <stop
         style="stop-color:#ecb700;stop-opacity:0;"
         offset="1"
         id="stop4274" />
    </linearGradient>
    <linearGradient
       id="linearGradient4258">
      <stop
         id="stop4266"
         offset="0"
         style="stop-color:#ffffff;stop-opacity:1;" />
      <stop
         style="stop-color:#ecb700;stop-opacity:1;"
         offset="1"
         id="stop4262" />
    </linearGradient>
    <radialGradient
       inkscape:collect="always"
       xlink:href="#linearGradient4258"
       id="radialGradient4292"
       cx="364.01382"
       cy="67.343758"
       fx="364.01382"
       fy="67.343758"
       r="49.90625"
       gradientTransform="matrix(0.45117091,0.51651163,-0.5205885,0.45473187,201.79982,-84.787232)"
       gradientUnits="userSpaceOnUse" />
  </defs>
  <sodipodi:namedview
     pagecolor="#ffffff"
     bordercolor="#666666"
     borderopacity="1"
     objecttolerance="10"
     gridtolerance="10"
     guidetolerance="10"
     inkscape:pageopacity="0"
     inkscape:pageshadow="2"
     inkscape:window-width="1920"
     inkscape:window-height="1025"
     id="namedview4"
     showgrid="false"
     inkscape:zoom="1.6660156"
     inkscape:cx="184.5721"
     inkscape:cy="256"
     inkscape:window-x="-2"
     inkscape:window-y="-3"
     inkscape:window-maximized="1"
     inkscape:current-layer="svg2"
     inkscape:snap-global="true"
     showguides="true"
     inkscape:guide-bbox="true"
     inkscape:snap-bbox="true">
    <inkscape:grid
       type="xygrid"
       id="grid4094"
       empspacing="5"
       visible="true"
       enabled="true"
       snapvisiblegridlinesonly="true" />
    <sodipodi:guide
       orientation="1,0"
       position="42,42"
       id="guide2999" />
    <sodipodi:guide
       orientation="1,0"
       position="470,42"
       id="guide3001" />
    <sodipodi:guide
       orientation="0,1"
       position="470,42"
       id="guide3003" />
    <sodipodi:guide
       orientation="0,1"
       position="470,470"
       id="guide3005" />
  </sodipodi:namedview>
  <g
     id="g3007"
     transform="matrix(1.0075686,0,0,1.0075686,1.3314251,-3.7336381)">
    <g
       id="g4199">
      <path
         id="path3821"
         d="m 219.47872,136.93953 c -17.34856,0.38993 -32.83907,6.81742 -44.03125,19.71875 -2.51036,2.89371 -4.73289,6.01181 -6.65625,9.34375 l -0.0625,-0.0625 c -0.10599,0.24673 -0.20623,0.50308 -0.3125,0.75 -2.04192,3.64061 -3.72697,7.51873 -5.09375,11.59375 -23.33813,52.10969 -57.11757,110.67142 -156.4374885,205.5 -17.2230005,16.44416 28.3223535,82.95371 57.1562495,65.96875 53.009259,-31.22577 182.268079,-92.05407 237.749989,-96.65625 l -0.1875,-0.25 c 13.93634,-1.9879 26.30117,-8.24756 35.65625,-19.03125 29.84582,-34.40355 17.80806,-101.94827 -26.875,-150.875 -27.92691,-30.57921 -61.99199,-46.64988 -90.90625,-46 z"
         style="fill:#0062cf;fill-opacity:1;stroke:none"
         inkscape:connector-curvature="0" />
      <path
         style="fill:#004899;fill-opacity:1;stroke:none"
         d="M 219.375,324.625 C 131.51082,398.03609 46.254461,434.56086 21.59375,433.5 c 12.579201,14.40754 29.268533,24.15075 42.46875,16.375 6.833584,-4.02541 14.953509,-8.54956 24,-13.375 3.942697,-0.53974 4.913764,3.15586 5.40625,4.4375 5.624894,19.68713 10.96886,39.09412 16.59375,58.78125 4.09083,16.36333 59.57378,7.4115 54.84375,-15.34375 -4.85786,-24.41716 -9.70464,-49.17659 -14.5625,-73.59375 -0.39302,-1.8865 -0.38894,-3.86345 1.5625,-5.8125 51.45653,-23.68387 108.75195,-46.07414 143.5625,-51 l 0.1875,-0.4375 c -23.47358,1.30103 -50.64835,-8.65842 -75.25,-28.71875 L 219.375,324.625 z"
         id="path3816"
         inkscape:connector-curvature="0" />
      <path
         style="fill:#004899;fill-opacity:1;stroke:none"
         d="m 238.16315,218.99413 c -18.85618,8.56518 -32.34314,9.07653 -51.96635,11.3137 -9.71573,21.02944 12.40033,76.95879 70.95037,90.70143 7.98991,-20.19849 10.80235,-38.28764 23.96972,-58.86964"
         id="path4035"
         inkscape:connector-curvature="0"
         sodipodi:nodetypes="cccc" />
      <path
         id="path3833"
         style="fill:#007fe8;fill-opacity:1;stroke:none"
         d="m 216.53125,163.71875 c -20.67757,1.35664 -34.18192,24.28555 -30.87596,43.65579 1.70951,46.1374 31.86391,87.73205 71.21971,110.09421 16.46555,8.64325 38.10691,14.10044 55.03125,3.96875 15.97937,-11.6398 17.61691,-34.27177 14,-52.21875 -6.83709,-37.98361 -31.29033,-71.22536 -63.34375,-92.03125 -13.74969,-8.47473 -29.75075,-13.99371 -46.03125,-13.46875 z m 120.74142,170.22704 c -29.84582,34.40355 -90.26342,22.6302 -134.94647,-26.29654 -44.68305,-48.92673 -56.711,-116.47927 -26.86519,-150.88283 29.84582,-34.40355 90.26341,-22.63019 134.94646,26.29654 44.68306,48.92673 56.71101,116.47927 26.8652,150.88283 z"
         inkscape:connector-curvature="0" />
      <path
         style="fill:#0080e9;fill-opacity:1;stroke:none"
         d="m 241.60339,217.97863 c -7.05616,1.30819 -10.05099,8.88262 -7.64817,14.23384 2.4685,16.90639 18.21059,32.26095 38.2535,35.01482 7.08416,0.036 11.80702,-6.64018 10.42476,-12.14823 -0.80536,-12.82685 -10.11552,-24.33918 -21.8844,-31.83261 -5.57605,-3.28219 -12.25458,-5.50565 -19.14569,-5.26782 z"
         id="path3993"
         inkscape:connector-curvature="0" />
    </g>
    <path
       transform="matrix(1.0487805,0,0,1.0487805,-451.35773,-37.89545)"
       d="m 752.07397,230.8831 c 0,16.73298 -13.56475,30.29773 -30.29772,30.29773 -16.73298,0 -30.29773,-13.56475 -30.29773,-30.29773 0,-16.73297 13.56475,-30.29773 30.29773,-30.29773 16.73297,0 30.29772,13.56476 30.29772,30.29773 z"
       sodipodi:ry="30.297728"
       sodipodi:rx="30.297728"
       sodipodi:cy="230.8831"
       sodipodi:cx="721.77625"
       id="path4088"
       style="fill:#ecb700;fill-opacity:1;stroke:none"
       sodipodi:type="arc" />
    <path
       id="path4092"
       d="m 294.53337,118.25583 -1.9375,25.625 c 4.20787,-0.90525 8.55302,-1.40625 13.03125,-1.40625 34.11776,0 61.78125,27.66349 61.78125,61.78125 0,10.98778 -2.90749,21.27829 -7.9375,30.21875 l 25.0625,5.78125 c 5.01681,-10.97552 7.875,-23.1445 7.875,-36 0,-47.92488 -38.85637,-86.78125 -86.78125,-86.78125 -3.76615,0 -7.45406,0.31579 -11.09375,0.78125 z"
       style="fill:#ecb700;fill-opacity:1;stroke:none"
       inkscape:connector-curvature="0" />
    <path
       id="path4098"
       d="m 298.78337,62.81833 -1.90625,25.09375 c 2.89949,-0.21562 5.79542,-0.4375 8.75,-0.4375 64.49342,0 116.78125,52.28783 116.78125,116.78125 0,15.1382 -2.97544,29.56886 -8.21875,42.84375 l 24.5,5.65625 c 5.52719,-15.15391 8.71875,-31.43434 8.71875,-48.5 0,-78.30054 -63.48071,-141.78125 -141.78125,-141.78125 -2.30986,0 -4.56094,0.234512 -6.84375,0.34375 z"
       style="fill:#ecb700;fill-opacity:1;stroke:none"
       inkscape:connector-curvature="0" />
    <path
       id="path4102"
       d="m 303.00212,7.53708 -1.90625,25.15625 c 1.5201,-0.03975 3.00156,-0.21875 4.53125,-0.21875 94.86909,0 171.78125,76.91217 171.78125,171.78125 0,19.37129 -3.33844,37.94049 -9.25,55.3125 l 24.5,5.65625 c 6.26264,-19.21408 9.75,-39.66493 9.75,-60.96875 0,-108.6762 -88.10505,-196.78125 -196.78125,-196.78125 -0.88046,0 -1.74728,0.05097 -2.625,0.0625 z"
       style="fill:#ecb700;fill-opacity:1;stroke:none"
       inkscape:connector-curvature="0" />
  </g>
</svg>
