<?xml version="1.0" encoding="UTF-8" standalone="no"?>
<!-- Generator: Adobe Illustrator 15.1.0, SVG Export Plug-In . SVG Version: 6.00 Build 0)  -->

<svg
   xmlns:dc="http://purl.org/dc/elements/1.1/"
   xmlns:cc="http://creativecommons.org/ns#"
   xmlns:rdf="http://www.w3.org/1999/02/22-rdf-syntax-ns#"
   xmlns:svg="http://www.w3.org/2000/svg"
   xmlns="http://www.w3.org/2000/svg"
   xmlns:sodipodi="http://sodipodi.sourceforge.net/DTD/sodipodi-0.dtd"
   xmlns:inkscape="http://www.inkscape.org/namespaces/inkscape"
   version="1.1"
   x="0px"
   y="0px"
   width="32"
   height="32"
   viewBox="0 0 32 32"
   xml:space="preserve"
   id="svg2"
   inkscape:version="0.48.3.1 r9886"
   sodipodi:docname="ic_menu_camera_white.svg"
   inkscape:export-filename="/home/drbild/ic_menu_pin_white_hdpi.png"
   inkscape:export-xdpi="101.25"
   inkscape:export-ydpi="101.25"><metadata
   id="metadata16"><rdf:RDF><cc:Work
       rdf:about=""><dc:format>image/svg+xml</dc:format><dc:type
         rdf:resource="http://purl.org/dc/dcmitype/StillImage" /><dc:title /></cc:Work></rdf:RDF></metadata><defs
   id="defs14" /><sodipodi:namedview
   pagecolor="#ffffff"
   bordercolor="#666666"
   borderopacity="1"
   objecttolerance="10"
   gridtolerance="10"
   guidetolerance="10"
   inkscape:pageopacity="0"
   inkscape:pageshadow="2"
   inkscape:window-width="1280"
   inkscape:window-height="969"
   id="namedview12"
   showgrid="true"
   inkscape:zoom="17.611378"
   inkscape:cx="16.797098"
   inkscape:cy="17.265503"
   inkscape:window-x="1022"
   inkscape:window-y="-3"
   inkscape:window-maximized="1"
   inkscape:current-layer="layer1"
   inkscape:snap-page="true"
   inkscape:object-paths="true"
   inkscape:snap-global="true"><inkscape:grid
     type="xygrid"
     id="grid3760"
     empspacing="5"
     visible="true"
     enabled="true"
     snapvisiblegridlinesonly="true" /></sodipodi:namedview>
<g
   id="Layer_1">
</g>

<g
   inkscape:groupmode="layer"
   id="layer1"
   inkscape:label="fill_color"
   style="display:inline"><path
     style="fill:#ffffff;fill-opacity:1;stroke:none"
     d="m 12.25,4.0034722 c -0.703125,0.046875 -1.25,0.25 -1.25,1 0,1 -0.49863,1.5435076 -1,2 -0.5778928,0.5261661 -1,1 -2,1 l -5,0 c -1,0 -2,1 -2,1.9999998 l 0,16 c 0,1.0349 1,2 2,2 l 26,0 c 1,0 2,-1 2,-2 l 0,-16 C 31,9.0034722 30,8.0034722 29,8.0034722 l -5,0 c -1,0 -1.493931,-0.4359108 -2,-1 -0.406072,-0.4526279 -1,-1 -1,-2 0,-1 -1,-1 -2,-1 l -6,0 c -0.25,0 -0.515625,-0.015625 -0.75,0 z M 16,11 c 3.457496,0 7,3 7,7 0,4 -3,7 -7,7 -4,0 -7,-3 -7,-7 0,-4 3,-7 7,-7 z m 0,2.003472 c -2.761424,0 -5,2.238576 -5,5 0,2.761424 2.238576,5 5,5 2.761424,0 5,-2.238576 5,-5 0,-2.761424 -2.238576,-5 -5,-5 z"
     id="rect3752"
     inkscape:connector-curvature="0"
     sodipodi:nodetypes="ssssssssssssssssssssssssssss" /></g></svg>