<?xml version="1.0" encoding="UTF-8" standalone="no"?>
<!-- Created with Inkscape (http://www.inkscape.org/) -->

<svg
   xmlns:dc="http://purl.org/dc/elements/1.1/"
   xmlns:cc="http://creativecommons.org/ns#"
   xmlns:rdf="http://www.w3.org/1999/02/22-rdf-syntax-ns#"
   xmlns:svg="http://www.w3.org/2000/svg"
   xmlns="http://www.w3.org/2000/svg"
   xmlns:sodipodi="http://sodipodi.sourceforge.net/DTD/sodipodi-0.dtd"
   xmlns:inkscape="http://www.inkscape.org/namespaces/inkscape"
   width="32"
   height="32"
   id="svg2"
   version="1.1"
   inkscape:version="0.48.3.1 r9886"
   sodipodi:docname="ic_menu_delete_white.svg">
  <defs
     id="defs4" />
  <sodipodi:namedview
     id="base"
     pagecolor="#ffffff"
     bordercolor="#666666"
     borderopacity="1.0"
     inkscape:pageopacity="0.0"
     inkscape:pageshadow="2"
     inkscape:zoom="9.38"
     inkscape:cx="16.001822"
     inkscape:cy="10.982645"
     inkscape:document-units="px"
     inkscape:current-layer="layer1"
     showgrid="true"
     inkscape:snap-grids="false"
     inkscape:window-width="1366"
     inkscape:window-height="744"
     inkscape:window-x="0"
     inkscape:window-y="24"
     inkscape:window-maximized="1">
    <inkscape:grid
       type="xygrid"
       id="grid3766"
       empspacing="5"
       visible="true"
       enabled="true"
       snapvisiblegridlinesonly="true" />
  </sodipodi:namedview>
  <metadata
     id="metadata7">
    <rdf:RDF>
      <cc:Work
         rdf:about="">
        <dc:format>image/svg+xml</dc:format>
        <dc:type
           rdf:resource="http://purl.org/dc/dcmitype/StillImage" />
        <dc:title></dc:title>
      </cc:Work>
    </rdf:RDF>
  </metadata>
  <g
     inkscape:label="Layer 1"
     inkscape:groupmode="layer"
     id="layer1"
     transform="translate(0,-1020.3622)">
    <path
       style="fill:#000000"
       d=""
       id="path2996"
       inkscape:connector-curvature="0" />
    <path
       style="fill:#ffffff;fill-opacity:1"
       d="m 2.8471408,1050.0721 c -0.3639827,-0.3641 -0.6617859,-1.7042 -0.6617859,-2.9782 0,-2.2347 0.2878135,-2.3182 8.1895921,-2.3723 13.454137,-0.093 17.005641,-2.2878 15.2183,-9.4091 -0.65624,-2.6148 -1.714558,-3.0477 -9.758573,-3.9913 -5.360826,-0.6291 -5.707897,-0.5421 -5.707897,1.43 0,1.1548 -0.3796827,2.0996 -0.8437376,2.0996 -0.9592393,0 -9.0830394,-5.7338 -9.0830394,-6.4109 0,-0.5446 8.5760852,-6.4937 9.3611251,-6.4937 0.3111097,0 0.5656519,0.8933 0.5656519,1.9853 0,1.7683 0.661786,1.9852 6.054213,1.9852 11.042393,0 16.509543,4.7941 15.516313,13.6061 -0.606655,5.3822 -2.610123,7.6741 -8.446559,9.6628 -4.51345,1.5378 -19.1176483,2.1724 -20.4036032,0.8865 z"
       id="path3897"
       inkscape:connector-curvature="0" />
  </g>
</svg>
