<?xml version="1.0" encoding="UTF-8" standalone="no"?>
<!-- Created with Inkscape (http://www.inkscape.org/) -->

<svg
   xmlns:dc="http://purl.org/dc/elements/1.1/"
   xmlns:cc="http://creativecommons.org/ns#"
   xmlns:rdf="http://www.w3.org/1999/02/22-rdf-syntax-ns#"
   xmlns:svg="http://www.w3.org/2000/svg"
   xmlns="http://www.w3.org/2000/svg"
   xmlns:sodipodi="http://sodipodi.sourceforge.net/DTD/sodipodi-0.dtd"
   xmlns:inkscape="http://www.inkscape.org/namespaces/inkscape"
   id="svg3017"
   version="1.1"
   inkscape:version="0.48.2 r9819"
   width="75"
   height="75"
   sodipodi:docname="monoicon4.png">
  <metadata
     id="metadata3023">
    <rdf:RDF>
      <cc:Work
         rdf:about="">
        <dc:format>image/svg+xml</dc:format>
        <dc:type
           rdf:resource="http://purl.org/dc/dcmitype/StillImage" />
        <dc:title></dc:title>
      </cc:Work>
    </rdf:RDF>
  </metadata>
  <defs
     id="defs3021" />
  <sodipodi:namedview
     pagecolor="#ffffff"
     bordercolor="#666666"
     borderopacity="1"
     objecttolerance="10"
     gridtolerance="10"
     guidetolerance="10"
     inkscape:pageopacity="0"
     inkscape:pageshadow="2"
     inkscape:window-width="1920"
     inkscape:window-height="1058"
     id="namedview3019"
     showgrid="false"
     inkscape:zoom="3.1466667"
     inkscape:cx="37.5"
     inkscape:cy="37.5"
     inkscape:window-x="-8"
     inkscape:window-y="-8"
     inkscape:window-maximized="0"
     inkscape:current-layer="g3033" />
  <g
     id="g3033"
     transform="translate(4.7669495,-0.95338983)">
    <path
       style="fill:#000000"
       d="m 12.159255,74.607493 c -0.865588,-0.50637 -2.1811212,-2.760887 -2.9234082,-5.010037 -1.018577,-3.08632 -1.73632,-3.928976 -2.926204,-3.435465 -3.9537317,1.63983 -5.0951649,1.499328 -7.5201699,-0.925677 -1.4060322,-1.406032 -2.5564221,-3.459795 -2.5564221,-4.563917 0,-1.104122 3.28918502,-5.962077 7.3092999,-10.795455 8.0694703,-9.70191 14.6907003,-19.130226 14.6907003,-20.918855 0,-0.636677 1.305544,-2.555183 2.90121,-4.263349 5.008802,-5.36194 11.611275,-3.874681 18.737096,4.220679 6.651614,7.556633 9.610562,15.255494 7.738359,20.134375 -0.791186,2.061798 -6.702768,5.055404 -11.819876,5.985548 -3.24869,0.590518 -16.125347,5.144717 -17.419479,6.160897 -0.199479,0.156636 0.201889,2.63822 0.89193,5.514632 1.194156,4.977799 1.146055,5.317751 -0.998094,7.053977 -2.503782,2.02744 -3.778823,2.20343 -6.104942,0.842647 z m 5.581324,-4.845202 c -0.356174,-0.920319 -0.889283,-2.870594 -1.184686,-4.333944 -0.496802,-2.461026 -0.756584,-2.584122 -3.462688,-1.640769 -3.1532032,1.099213 -3.2042572,2.840548 -0.221893,7.56832 1.191731,1.889183 1.770502,2.084689 3.473434,1.173308 1.350644,-0.722843 1.823872,-1.660907 1.395833,-2.766915 z M 15.733051,59.633847 c 0.55,-0.395509 3.925,-1.764646 7.5,-3.042529 11.206648,-4.005811 10.954801,-3.574436 5.084754,-8.709411 -2.834832,-2.479842 -6.075065,-6.31377 -7.200519,-8.519842 -1.127831,-2.210732 -2.421978,-3.621008 -2.883328,-3.14206 -3.338084,3.465412 -17.45149425,21.308054 -18.28374437,23.114916 -0.80552901,1.748848 -0.65931191,2.660505 0.66063512,4.11903 1.65268505,1.826197 1.85069465,1.810825 7.90866405,-0.613952 3.4174462,-1.367875 6.6635382,-2.810644 7.2135382,-3.206152 z M 43.9186,49.414669 C 46.946207,46.57038 46.849283,45.409498 43.026331,38.727673 35.17647,25.007548 25.868165,20.592554 21.716798,28.620413 c -1.118293,2.162539 -1.200328,3.48314 -0.36519,5.878819 1.273793,3.654005 2.044032,3.770418 6.544304,0.989097 3.971466,-2.454501 7.69882,-1.960574 9.415854,1.247734 0.922579,1.723856 0.698568,3.058348 -1.190367,7.091302 -2.276789,4.86104 -2.285742,4.997868 -0.41645,6.364728 2.728719,1.995288 5.546085,1.728624 8.213651,-0.777424 z M 30.944044,40.657365 c -1.924503,-2.287142 -2.663629,-2.568738 -4.542185,-1.730503 -2.223668,0.992229 -2.210174,1.035433 1.514834,4.850187 3.579743,3.66599 3.795757,3.748288 4.542185,1.730503 0.570558,-1.542365 0.158572,-2.861457 -1.514834,-4.850187 z m 5.289007,-1.368382 c 0,-0.715 -0.54,-1.84 -1.2,-2.5 -1.589257,-1.589257 -3.8,-1.53108 -3.8,0.1 0,0.715 0.54,1.84 1.2,2.5 1.589257,1.589257 3.8,1.53108 3.8,-0.1 z M 66.874893,32.818487 C 66.553751,32.298869 66.700064,30.447399 67.200033,28.704109 68.565387,23.943398 66.088077,16.82807 61.513372,12.370889 56.723423,7.7039928 48.971834,4.1912265 45.150075,4.9555783 41.851094,5.6153745 40.591416,4.3663823 42.74948,2.5753481 c 0.964291,-0.80029 2.907267,-1.0143233 5.477274,-0.6033626 12.802058,2.0471316 23.221024,14.5238655 21.685918,25.9689325 -0.55293,4.122403 -2.03439,6.501088 -3.037779,4.877569 z M 51.792358,31.684944 c -0.372537,-0.602778 -0.411468,-1.526153 -0.08651,-2.051943 1.011475,-1.6366 -2.246254,-8.033784 -4.171768,-8.192078 -0.990565,-0.08143 -2.476027,-0.193933 -3.301027,-0.25 -2.047104,-0.139121 -2.471778,-1.901769 -0.723835,-3.004343 0.940082,-0.592989 2.766672,-0.25011 5.327221,1 3.020931,1.474878 4.226497,2.856686 5.364529,6.148773 1.317238,3.810491 1.303722,4.410564 -0.131675,5.845962 -1.087446,1.087446 -1.816457,1.248694 -2.276933,0.503629 z m 7.139845,0.269858 c -0.37499,-0.37499 -0.249167,-1.203091 0.279607,-1.840225 1.181973,-1.424191 -0.190798,-6.76924 -2.852263,-11.105629 -2.232857,-3.638048 -8.357785,-6.829715 -11.562792,-6.02531 -2.78787,0.699711 -3.922354,-0.257582 -2.432583,-2.052646 1.534883,-1.8494205 4.235668,-1.6809899 9.173743,0.572108 6.06298,2.766358 8.519098,5.87576 9.841144,12.458715 0.966711,4.813609 0.916902,5.992829 -0.30473,7.214461 -0.803179,0.80318 -1.767136,1.153516 -2.142126,0.778526 z M 42.621591,29.15912 c -0.995668,-2.594671 0.399883,-4.739185 2.856989,-4.390274 1.652733,0.23469 2.254471,0.987409 2.254471,2.820137 0,1.832728 -0.601738,2.585447 -2.254471,2.820137 -1.352279,0.192025 -2.495586,-0.308199 -2.856989,-1.25 z"
       id="path3035"
       inkscape:connector-curvature="0" />
  </g>
</svg>
