<?xml version="1.0" encoding="UTF-8" standalone="no"?>
<!-- Generator: Adobe Illustrator 15.1.0, SVG Export Plug-In . SVG Version: 6.00 Build 0)  -->

<svg
   xmlns:dc="http://purl.org/dc/elements/1.1/"
   xmlns:cc="http://creativecommons.org/ns#"
   xmlns:rdf="http://www.w3.org/1999/02/22-rdf-syntax-ns#"
   xmlns:svg="http://www.w3.org/2000/svg"
   xmlns="http://www.w3.org/2000/svg"
   xmlns:xlink="http://www.w3.org/1999/xlink"
   xmlns:sodipodi="http://sodipodi.sourceforge.net/DTD/sodipodi-0.dtd"
   xmlns:inkscape="http://www.inkscape.org/namespaces/inkscape"
   version="1.1"
   x="0px"
   y="0px"
   width="32"
   height="32"
   viewBox="0 0 32 32"
   xml:space="preserve"
   id="svg2"
   inkscape:version="0.48.3.1 r9886"
   sodipodi:docname="ic_menu_reshout_white.svg"
   inkscape:export-filename="/home/drbild/ic_menu_pin_white_hdpi.png"
   inkscape:export-xdpi="101.25"
   inkscape:export-ydpi="101.25"><metadata
   id="metadata16"><rdf:RDF><cc:Work
       rdf:about=""><dc:format>image/svg+xml</dc:format><dc:type
         rdf:resource="http://purl.org/dc/dcmitype/StillImage" /><dc:title /></cc:Work></rdf:RDF></metadata><defs
   id="defs14"><radialGradient
     gradientUnits="userSpaceOnUse"
     gradientTransform="matrix(0.45117091,0.51651163,-0.5205885,0.45473187,201.79982,-84.787232)"
     r="49.90625"
     fy="67.343758"
     fx="364.01382"
     cy="67.343758"
     cx="364.01382"
     id="radialGradient4292"
     xlink:href="#linearGradient4258"
     inkscape:collect="always" /><linearGradient
     id="linearGradient4258"><stop
       style="stop-color:#ffffff;stop-opacity:1;"
       offset="0"
       id="stop4266" /><stop
       id="stop4262"
       offset="1"
       style="stop-color:#ecb700;stop-opacity:1;" /></linearGradient><linearGradient
     id="linearGradient4270"><stop
       id="stop4272"
       offset="0"
       style="stop-color:#ecb700;stop-opacity:1;" /><stop
       id="stop4274"
       offset="1"
       style="stop-color:#ecb700;stop-opacity:0;" /></linearGradient></defs><sodipodi:namedview
   pagecolor="#ffffff"
   bordercolor="#666666"
   borderopacity="1"
   objecttolerance="10"
   gridtolerance="10"
   guidetolerance="10"
   inkscape:pageopacity="0"
   inkscape:pageshadow="2"
   inkscape:window-width="1920"
   inkscape:window-height="1025"
   id="namedview12"
   showgrid="false"
   inkscape:zoom="13.328125"
   inkscape:cx="-1.6885574"
   inkscape:cy="14.808631"
   inkscape:window-x="-2"
   inkscape:window-y="-3"
   inkscape:window-maximized="1"
   inkscape:current-layer="layer1"
   inkscape:snap-page="true"
   inkscape:object-paths="true"
   inkscape:snap-global="false"
   inkscape:snap-nodes="true"
   inkscape:snap-bbox="true" />
<g
   id="Layer_1">
</g>

<g
   inkscape:groupmode="layer"
   id="layer1"
   inkscape:label="fill_color"
   style="display:inline"><g
     id="g3884"
     transform="matrix(0.99408735,0,0,0.99408735,0.09213352,0.09541818)"
     style="stroke:none;fill:#ffffff;fill-opacity:1"><path
       id="path3821"
       d="M 19.53125,0 C 18.035572,0.0336177 16.714917,0.57523257 15.75,1.6875 15.533574,1.9369767 15.35332,2.2127425 15.1875,2.5 l -0.03125,0 c -0.0091,0.021271 0.0092,0.041216 0,0.0625 -0.17602,0.3138695 -0.350915,0.6486798 -0.46875,1 -2.012059,4.4925534 -4.9060432,9.543257 -13.46875,17.71875 -1.48485322,1.417707 2.4516322,7.15183 4.9375,5.6875 4.570107,-2.692079 15.685466,-7.946981 20.46875,-8.34375 1.201499,-0.171384 2.255968,-0.726552 3.0625,-1.65625 1.892162,-2.181112 1.852626,-5.909481 0.15625,-9.40625 L 29.1875,6.40625 C 28.678897,5.5627106 28.073312,4.7333813 27.375,3.96875 27.230574,3.810607 27.085525,3.6490995 26.9375,3.5 L 25.96875,2.59375 C 23.884815,0.85038564 21.549544,-0.04536369 19.53125,0 z m -0.1875,1.59375 c 1.521398,0.00192 3.319375,0.7250779 5.03125,2.0625 l 0.8125,0.6875 c 0.322398,0.2952153 0.660048,0.6296886 0.96875,0.96875 0.737116,0.8096044 1.36541,1.6527466 1.875,2.53125 L 28.5,8.78125 c 1.326765,2.763166 1.472147,5.527667 0.125,7.0625 -1.354974,1.543757 -3.834951,1.425519 -6.34375,-0.03125 0.361811,-1.081128 1.232319,-3.580372 1.71875,-4.59375 0.03091,0.005 0.0626,-0.0043 0.09375,0 C 24.704499,11.22195 25.119169,10.662367 25,10.1875 24.930561,9.0816526 24.108385,8.0835348 23.09375,7.4375 22.61302,7.1545324 22.031607,6.979495 21.4375,7 20.993176,7.0823743 20.744601,7.4389054 20.71875,7.8125 20.66037,7.83046 20.120867,8.0132873 20.0625,8.03125 19.076744,8.3022056 17.094559,8.5461962 16.3125,8.625 15.460567,6.2665078 15.496496,4.0400874 16.65625,2.71875 c 0.663718,-0.7561921 1.609347,-1.126363 2.6875,-1.125 z"
       style="fill:#ffffff;fill-opacity:1;stroke:none"
       inkscape:connector-curvature="0" /><path
       id="path3816"
       d="m 19.536085,16.182811 c -7.575068,6.329018 -14.9253077,9.477942 -17.0513911,9.386482 1.0844955,1.242123 2.5233394,2.082118 3.6613749,1.411745 0.5891464,-0.347045 1.2891926,-0.737088 2.0691213,-1.153105 0.3399131,-0.04653 0.4236321,0.272078 0.4660911,0.382572 0.484941,1.697295 0.9456625,3.370437 1.4306038,5.067731 0.352684,1.410737 5.136057,0.63897 4.728265,-1.322837 -0.418812,-2.105086 -0.83667,-4.23968 -1.255482,-6.344767 -0.03388,-0.162641 -0.03353,-0.33308 0.134713,-0.501115 4.436242,-2.041867 9.375874,-3.972208 12.377009,-4.396883 l 0.01617,-0.03771 C 24.08882,18.787095 21.745991,17.92845 19.625,16.198982 l -0.0889,-0.01617 z"
       style="fill:#ffffff;fill-opacity:1;stroke:none"
       inkscape:connector-curvature="0" /></g></g></svg>